# xmcd
#
# Track frame offsets:
#   150
#   16433
#   34897
#   52432
#   72536
#   87387
#   100945
#   119445
#   136498
#   150172
#   170147
#   192451
#   209676
#   234720
#   252775
#   272269
#
# Disc length: 3861 seconds
#
# Revision: 0
# Processed by: cddbd v1.5.2PL0 Copyright (c) Steve Scherf et al.
# Submitted via: GXTranscoder 2.0.1939
#
DISCID=f10f1310
DTITLE=Ronan Luce - Repenti
DYEAR=2008
DGENRE=Blues
TTITLE0=Les voisines
TTITLE1=Repenti
TTITLE2=Le lacrymal Circus
TTITLE3=Je suis une feuille
TTITLE4=La lettre
TTITLE5=Chien mouillé
TTITLE6=Monsieur Marcel
TTITLE7=24h01
TTITLE8=Camelote
TTITLE9=Mes racines
TTITLE10=I was here
TTITLE11=Nuit blanche
TTITLE12=L'iris et la rose
TTITLE13=Les voisines
TTITLE14=Monsieur Marcel
TTITLE15=La lettre
EXTD=
EXTT0=
EXTT1=
EXTT2=
EXTT3=
EXTT4=
EXTT5=
EXTT6=
EXTT7=
EXTT8=
EXTT9=
EXTT10=
EXTT11=
EXTT12=
EXTT13=
EXTT14=
EXTT15=
PLAYORDER=
